<svg height="274" width="395" xmlns="http://www.w3.org/2000/svg" xmlns:xlink="http://www.w3.org/1999/xlink"><clipPath id="a"><path d="m32.74 32.45v195.7h172.7c2.76-14.43 32.67-35.73 78.23-34.48 45.83 1.27 61.05 24.82 67.16 34.48l11.43-.18v-195.52z"/></clipPath><clipPath id="b"><path d="m211.23 232.34c-2.44-12.91 1.34-27.8 1.88-29.53 0 0 75.4 2.52 74.14 23.25-.06 1.03-4.31 19.5-8.17 20.73-10.09 3.2-51.3 2.52-51.3 2.5-7.75-.61-14.87-8.05-16.55-16.95z"/></clipPath><clipPath id="c"><path d="m264.05 245.3c.27-2.16.58-4.16-.26-10.76a11.75 11.75 0 0 0 -14.95-10.18c-5.69 1.61-8.48 6.54-9.97 16.15s-1.87 26.78 1.08 35.53c4.08 12.15 10.2 50 10.23 51.17l9.06-.73s4.29-76.93 4.81-81.18z"/></clipPath><clipPath id="d"><path d="m124.09 108.4h24.03v21.53h-24.03z" transform="matrix(.05198737 -.99864774 .99864774 .05198737 10.015668 248.890623)"/></clipPath><clipPath id="e"><path d="m130.22 92.38h16.77v6.9h-16.77z" transform="matrix(.05198737 -.99864774 .99864774 .05198737 35.684151 229.270108)"/></clipPath><clipPath id="f"><path d="m122.2 94.31h2.82v1.29h-2.82z" transform="matrix(.05198737 -.99864774 .99864774 .05198737 22.352758 213.446661)"/></clipPath><clipPath id="g"><path d="m147.96 95.63h3.78v1.23h-3.78z" transform="matrix(.05198737 -.99864774 .99864774 .05198737 45.939848 240.89358)"/></clipPath><clipPath id="h"><path d="m135.94 111.42h1.16v4.16h-1.16z" transform="matrix(.05198737 -.99864774 .99864774 .05198737 16.085646 243.94481)"/></clipPath><clipPath id="i"><path d="m35.14 183.96 24.2.4s2.5 13.1 5.03 27.76c2.06 11.98 4.16 25.7 4.73 28.35l28.94-.32.72-.01 29.67-1.51c1.2-7.45 2.47-35.87 4.84-56.2l24.83-1.79s3.8-48.24-27.33-45.42a1.02 1.02 0 0 0 -.5.19c-9.93-3.44-23.4-7.25-23.4-7.25s-5.9-.53-10.58-.38c-2.35.03-8.9.88-8.9.88l-1.12.3c-4.05 1.07-18.1 4.84-27.12 8.07-27.27-.58-24.01 46.93-24.01 46.93z"/></clipPath><pattern id="j" height="47.05" patternTransform="matrix(.8237 0 0 .8237 190.15 -7.8)" patternUnits="userSpaceOnUse" width="50.86"><path d="m0 0h50.86v47.05h-50.86z" fill="none"/><path d="m50.84 46.81h50.9v47.52h-50.9z" fill="#fff"/><path d="m-.02 46.81h50.9v47.52h-50.9z" fill="#fff"/><path d="m-50.88 46.81h50.9v47.52h-50.9zm101.72-47.04h50.9v47.52h-50.9z" fill="#fff"/><path d="m-.02-.23h50.9v47.52h-50.9z" fill="#fff"/><path d="m12.9 4.84h-1.79l-.02-4.64h1.81v4.65zm7.5 2.13-1.47 1.05-2.7-3.82 1.49-1.04zm-6.74 7.62-.34-1.77 4.56-.9.35 1.77zm8.99-1.21-1.38-1.16 3-3.56 1.37 1.16-3 3.56zm4.35 6.47-1.8-.17.4-4.63 1.8.16zm-10.06 1.46.87-1.57 4.08 2.26-.89 1.58zm-12.77-14.31-1.47 1.03-2.69-3.8 1.49-1.05zm2.25 6.4-1.38-1.15 3-3.57 1.39 1.17-3 3.55zm4.34 6.47-1.79-.16.4-4.64 1.8.16-.4 4.64zm-10.06 1.47.88-1.57 4.07 2.25-.87 1.58-4.07-2.26zm29.04-16.52h-1.8l-.02-4.65h1.8v4.65zm7.48 2.13-1.48 1.05-2.67-3.82 1.47-1.03 2.68 3.81zm-6.72 7.62-.36-1.77 4.57-.9.35 1.76-4.57.91zm8.98-1.2-1.38-1.17 3-3.56 1.38 1.16zm4.34 6.45-1.8-.15.4-4.65 1.8.16zm-10.06 1.48.88-1.59 4.07 2.27-.88 1.57-4.07-2.26zm11.75-16.5h-1.8l-.01-4.66h1.8zm.76 9.74-.35-1.77 4.57-.9.35 1.78-4.57.9zm-33.32 13.89h-1.8l-.02-4.65h1.8zm7.48 2.13-1.47 1.04-2.68-3.8 1.47-1.05zm-6.73 7.62-.35-1.78 4.57-.9.35 1.77-4.57.9zm8.98-1.21-1.38-1.16 3-3.56 1.38 1.16zm4.35 6.47-1.8-.17.41-4.63 1.8.16-.4 4.64zm-10.06 1.47.87-1.58 4.07 2.26-.86 1.57-4.08-2.24zm-12.77-14.33-1.47 1.04-2.69-3.8 1.49-1.04zm2.26 6.42-1.38-1.17 3-3.56 1.38 1.17zm4.34 6.45-1.8-.15.41-4.64 1.8.16-.4 4.63zm-10.06 1.48.88-1.58 4.07 2.27-.88 1.57zm29.03-16.53-1.8.01v-4.66h1.8v4.66zm7.49 2.14-1.47 1.04-2.69-3.81 1.48-1.04 2.68 3.8zm-6.73 7.62-.35-1.77 4.57-.9.35 1.76-4.57.9zm8.97-1.21-1.37-1.16 3-3.56 1.38 1.16-3 3.56zm4.35 6.45-1.79-.15.4-4.64 1.8.16-.4 4.64zm-10.05 1.48.87-1.57 4.07 2.25-.87 1.58-4.08-2.26zm11.74-16.49h-1.8v-4.66h1.8zm.76 9.74-.35-1.77 4.58-.9.34 1.77-4.56.9z" fill="#054752"/><path d="m-50.88-.23h50.9v47.52h-50.9z" fill="#fff"/><path d="m-4.55 38.13-.36-1.77 4.58-.9.34 1.77z" fill="#054752"/><path d="m50.84-47.28h50.9v47.52h-50.9z" fill="#fff"/><path d="m-.02-47.28h50.9v47.52h-50.9z" fill="#fff"/><path d="m16.97-2.13.87-1.59 4.07 2.26-.86 1.58zm-16.23.01.88-1.57 4.08 2.26-.9 1.57zm33.06-.04.87-1.58 4.07 2.26-.87 1.58z" fill="#054752"/><path d="m-50.88-47.28h50.9v47.52h-50.9z" fill="#fff"/></pattern><g clip-path="url(#a)"><path d="m107.94 126.2a6.94 6.94 0 0 1 -6.9-7.73c1.15-9.95 6.39-26.87 28.05-34.15 33.72-11.34 115.04-26.95 133.85-20.53 15.78 5.38 40.57 36.6 44.76 54.34a6.93 6.93 0 0 1 -6.8 8.46z" fill="#96abc0" opacity=".1"/><path d="m336.5 146.47c-.62-8.16-8.1-18.14-17.63-19.33-8.26-1.03-217.44-.66-224.73.25-9.54 1.18-18.36 11.16-18.98 19.33-1.77 23.3-2.66 76.85-2.66 86.31l266.66-.24c0-9.46-.88-63.01-2.66-86.32z" fill="#96abc0" opacity=".23"/><path d="m221.28 87.22-5.02 63.45 47.74-1.27-6.28-66.6-17.86-15.84-18.58 20.25z" fill="#9ea8ad"/><path d="m204.75 227.28a8.48 8.48 0 0 0 4.61 6.18c.33.84.75 1.85.86 2.06a22.55 22.55 0 0 1 1.47 2.64 25.72 25.72 0 0 0 1.66 3.5c-1 .47-2.06.14-2.8-1.36-.62-1.11-1-2.22-1.53-2.05-.31.15-.06 1.1.54 3.17.52 1.68 1.34 4.3 1.85 6.59.38 1.42-1.03 1.67-1.5.78-.8-1.58-1.88-5.54-2.32-6.2-.15-.26-.4-.1-.38.1.28 1.96 3 6.47 1.46 7.03a.9.9 0 0 1 -.6-.14 2.98 2.98 0 0 1 -.79-1.21c-.05-.17-.12-.33-.2-.5-.68-1.77-1.32-3.56-1.78-4.45-.1-.25-.38-.33-.44-.1a12.42 12.42 0 0 0 .77 2.52c.63 1.8 1.36 3.96.74 4.2-.63.27-1.08-.65-1.6-1.9-.88-2.11-1.68-5.07-1.83-5.18-.14-.06-.38-.05-.3.18.19.77.7 2.78 1 4.16.15.7-.48 1.12-.82.78a59.6 59.6 0 0 1 -2.22-5.9c-1.3-3.55-1.33-7.38-2.5-10.74-.19-.63-.4-1.06-.7-1.8a33.59 33.59 0 0 0 7.35-2.36z" fill="#7d3561" opacity=".04"/><path d="m211.23 232.34c-2.44-12.91 1.34-27.8 1.88-29.53 0 0 51.7 5.22 54.03 7.54 5.03-.63 23.88-3.77 22.62 16.96-.06 1.03-6.82 18.26-10.68 19.48-10.08 3.2-51.29 2.52-51.3 2.5-7.75-.61-14.87-8.05-16.55-16.95z" fill="#669198"/><g clip-path="url(#b)"><path d="m205.83 221.34c6.03 11.63 6.03 17.28 20.48 17.28s5.65-14.45 25.76-14.45c16.34 0 15.7 25.13 15.7 25.13l-57.24.82z" fill="#547b7f"/></g><path d="m257.65 165.7-28.92 1.1c-4.26.1-6.78-1.43-9.65-4-.32-.29-2.38 22.44 50.32 13.35.28-.04 2.7-19.84 2.7-19.84s-2.55 9.44-14.45 9.4z" fill="#004753" opacity=".5"/><path d="m258.98 140.62 27.01 36.43c.05.04 10.47-5.74 11.23-6.1a124.94 124.94 0 0 0 -5.58-12c-.01-.01-.01-.04-.03-.05-5.53-10.8-10.58-22.85-20.07-30.85-.88-.78-9.9 10.39-12.56 12.57zm-32.76 4.96-24.52 44.94c-.04.05-13.88-5.02-14.7-5.24a124.85 124.85 0 0 1 3.41-12.8c.02 0 .01-.03.03-.05 3.56-11.6 9.7-28.2 17.65-37.73.74-.93 15.12 9.2 18.13 10.88z" fill="#eacb92"/><path d="m221.24 131.07a10.54 10.54 0 1 0 5.26 13.95 10.54 10.54 0 0 0 -5.26-13.95z" fill="#af865e"/><path d="m193.18 179.67a7.81 7.81 0 1 0 9.13 6.21 7.84 7.84 0 0 0 -9.13-6.21z" fill="#eacb92"/><path d="m187.6 195.42c2.73 16.46 6.17 26.12 7.77 29.99.52 1.37.81 1.86 1.07 2.71 1.17 3.36 1.2 7.19 2.5 10.75a59.63 59.63 0 0 0 2.22 5.9c.34.34.97-.08.82-.79-.3-1.38-.8-3.39-1-4.16-.08-.22.16-.24.3-.18.15.11.95 3.07 1.84 5.19.51 1.25.96 2.16 1.59 1.9.62-.24-.1-2.4-.74-4.2a12.42 12.42 0 0 1 -.77-2.52c.06-.23.35-.16.44.1.46.89 1.1 2.67 1.79 4.45l.2.5a2.98 2.98 0 0 0 .79 1.2.9.9 0 0 0 .6.14c1.54-.56-1.19-5.07-1.47-7.02-.01-.2.23-.36.38-.11.44.67 1.52 4.63 2.32 6.2.47.9 1.88.65 1.5-.78-.51-2.29-1.33-4.9-1.85-6.59-.6-2.08-.85-3.02-.54-3.16.54-.17.92.93 1.53 2.04.74 1.5 1.8 1.83 2.8 1.36a25.71 25.71 0 0 1 -1.65-3.5 22.55 22.55 0 0 0 -1.48-2.63 35.22 35.22 0 0 1 -1.2-3.04c-3.47-12.73-4.03-31.45-3.96-34.45a32.96 32.96 0 0 0 -1.08-8.61l-15.47 2.05a48.36 48.36 0 0 0 .74 7.26z" fill="#eacb92"/><path d="m203.39 192.58c.08 1.16.03 4.22.12 6.07.11 2.32 1.57 20.72 2.84 27.74-3.29-5.97-10.37-23.82-8.04-38.2.03-.19-.02.15 0 0 .14-.81.07-.56.25-1.36 4.19-19.39 16.94-38.72 16.94-38.72l.78 15.78-13.67 24.34z" fill="#eacb92" opacity=".67"/><path d="m279.84 132.75c-3.87-5.72-7.35-8.87-8.36-9.26a.13.13 0 0 0 -.05-.05c-4.85-2.7-23.77-6.41-23.77-6.41s-5.09-.4-6.9-.33l.04.9-8.6-.17s-18.74 6.88-23.52 9.7c0 .01-9.01 10.65-12.86 24.22l18.84 13.62c3.06 16.93-5.31 42.87-5.31 64.23 69.73-32.04 76.64-14.45 76.64-14.45-8.8-18.85-19.47-30.16-13.67-54.87l16.81-9.84a129.09 129.09 0 0 0 -9.29-17.29z" fill="url(#j)"/><path d="m279.84 132.75c-3.87-5.72-7.35-8.87-8.36-9.26a.13.13 0 0 0 -.05-.05c-4.85-2.7-23.77-6.41-23.77-6.41s-5.09-.4-6.9-.33l.04.9-8.6-.17s-18.74 6.88-23.52 9.7c0 .01-9.01 10.65-12.86 24.22l18.84 13.62c3.06 16.93-5.31 42.87-5.31 64.23 69.73-32.04 76.64-14.45 76.64-14.45-8.8-18.85-19.47-30.16-13.67-54.87l16.81-9.84a129.09 129.09 0 0 0 -9.29-17.29z" fill="#fff"/><path d="m247.12 102.53-15.76.4.36 11.46c.02.88-4.16 4.87-7.92 6.12-2.46.82 1.88 11.31 15.7 11.31s22.6-11.87 19.48-12.56a131.05 131.05 0 0 1 -11.31-3.15z" fill="#eacb92"/><path d="m270.6 121.2-7.5-2.14s-50.16 94.8-51.67 96.96c-.32.46-1.3 13.75-1.3 13.75l6.35-.97s52.82-103.19 54.12-107.6z"/><path d="m227.96 117.87s6.07 76.68 15.94 75.52c10.68-1.26 8.8-76.65 8.8-76.65" fill="none" stroke="#669198" stroke-miterlimit="10" stroke-width="1.26"/><path d="m231.72 103.87c.34.1 3.33 13.97 15.96 12.39l-.58-13.57z" fill="#eacb92" opacity=".67"/><path d="m291.81 263.3c.22-13.25-2.05-39.13-2.05-39.13l-25.95 1.27s.36 8.75 7.23 42.05c3.93 19.04 8.51 42.2 11.36 50.57l9.94-1.88c-1.65-17.49-.87-31.51-.52-52.88z" fill="#669198"/><path d="m289.73 224.12a12.8 12.8 0 1 1 -12.11-13.76 12.93 12.93 0 0 1 12.11 13.76z" fill="#669198"/><rect fill="#9aed66" height="27.59" rx="1.26" width="14.88" x="226.31" y="142.5"/><path d="m264.05 245.3c.58-6.05-.72-9.98-1.3-12.96-1.26-6.4-7.63-9.76-13.9-7.98-5.7 1.61-8.49 6.54-9.98 16.15s-1.87 26.78 1.08 35.53c4.08 12.15 10.2 50 10.23 51.17l9.06-.73s4.4-76.92 4.81-81.18z" fill="#669198"/><g clip-path="url(#c)"><path d="m242.01 229.2c-.62.63 4.4-5.65 14.45-1.26 8.38 3.67 7.54 27.65 7.54 27.65l10.06-10.06 3.14-24.5-23.25-2.51-13.82 1.88z" fill="#547b7f"/></g><path d="m295.09 167.51a7.81 7.81 0 1 1 -11.04.61 7.81 7.81 0 0 1 11.04-.6z" fill="#eacb92"/><path d="m290.1 165.07a32.78 32.78 0 0 0 -8.6-1.23c6.67-.04-14.92 1.13-34.38-4.53-.66-.2-2.7-1.1-3.01-1.25a22.59 22.59 0 0 0 -2.61-1.51 25.8 25.8 0 0 1 -3.47-1.72c-.5 1-.18 2.05 1.31 2.82 1.1.63 2.2 1.03 2.03 1.56-.15.31-1.1.04-3.16-.6-1.68-.54-4.28-1.4-6.56-1.95-1.42-.4-1.69 1-.8 1.49 1.56.82 5.5 1.96 6.16 2.43.26.14.08.38-.11.37-1.95-.32-6.42-3.11-7-1.58a.88.88 0 0 0 .13.6 2.9 2.9 0 0 0 1.2.8l.49.2c1.76.73 3.54 1.4 4.43 1.87.25.1.32.38.08.44a12.18 12.18 0 0 1 -2.5-.81c-1.79-.66-3.95-1.42-4.2-.8-.26.62.64 1.08 1.89 1.62 2.1.92 5.04 1.77 5.15 1.91.06.15.04.39-.18.3-.77-.2-2.77-.74-4.14-1.07-.7-.15-1.14.47-.8.81a58.67 58.67 0 0 0 5.86 2.32c3.55 1.36 7.37 1.45 10.7 2.67.85.28 1.34.58 2.71 1.12 3.84 1.67 13.45 5.26 29.86 8.28a69.14 69.14 0 0 0 7.93 1.2m-63.51-92.71c1.76 11.8 6.15 22.86 13.84 23.01 7.06.14 12.08-11.47 13.24-23.35 1.49-15.35-5.23-20.13-13.76-20.13s-15.42 6.35-13.32 20.47z" fill="#eacb92"/><path d="m252.1 86.04s1.4-1.28 2.17.38c.2.44.24 1.14.08 3.88-.14 2.45-2.3 3.04-3.28 2.06-.03-.03 1.03-6.32 1.03-6.32z" fill="#eacb92"/><circle cx="242.63" cy="88.41" fill="#004753" r="1.13"/><circle cx="230.49" cy="88.41" fill="#004753" r="1.13"/><path d="m234.46 96.54a3.35 3.35 0 0 0 4.43.02l-2.96-1.27c.05-.25.37-7.93.4-7.87z" fill="#eacb92" opacity=".67"/><path d="m251.7 87.82c-.03.05.04.1.09.07s.07-.07.1-.1a.48.48 0 0 1 .7.02 1.4 1.4 0 0 1 .3.73 2.8 2.8 0 0 1 .02 1.45.96.96 0 0 1 -1.15.67" fill="#eacb92" opacity=".67"/><path d="m241.96 100.91c-1.03-.03-6.98 0-6.98 0 .13 1.27 1.92 2.34 3.58 2.4 1.57.04 3.36-1.25 3.4-2.4z" fill="#fff"/><path d="m221.28 90.98s9.2-2.97 14.36-11.01 3.83-14.92 3.83-14.92-9.05-1.57-14.77 5.88c-4.8 6.25-3.5 17.6-3.42 20.05z" fill="#aab8c1"/><path d="m258.35 91.61s-14.32-5.15-19.48-13.2-5.02-13.18-5.02-13.18 15.23-1.75 20.98 5.7c4.82 6.24 3.6 18.23 3.52 20.68z" fill="#aab8c1"/><path d="m225.9 89.75 1.4 2.79.89 5.7-2.22-4.95s-.22.03-.16.4a2.38 2.38 0 0 0 .35.75l2.8 8.2 1.75 2.67a20.14 20.14 0 0 0 9.67 1.54c5.37-.52 7.19-3 7.19-3l.55-.81 3.32-9.45a.53.53 0 0 0 -.01-.4c-.08-.2-.27.02-.27.02l-2.93 7.99.96-7.55 1.86-4.8a.52.52 0 0 0 .07-.34c-.07-.29-.2-.14-.2-.14l-2.13 4.38s-7.96 1.35-12.5 1.55a24.49 24.49 0 0 1 -7.7-.81l-2.72-4.44s-.2-.05-.19.3a.68.68 0 0 0 .22.4z" fill="#fff"/><path d="m229.36 96.42a14.62 14.62 0 0 0 6.4 1.17 75.6 75.6 0 0 0 11.16-1.3s-6.33 2.28-11.04 2c-4.42-.26-6.52-1.87-6.52-1.87zm.61 5.46s1.4.75 5.62.64a78.15 78.15 0 0 0 10.27-1.24 37.5 37.5 0 0 1 -9.86 1.88c-4.43.1-6.03-1.28-6.03-1.28z" fill="#5f003c" opacity=".26"/><path d="m172.87 177.04a84.48 84.48 0 0 1 4.74-12.86 117.46 117.46 0 0 0 10.57-31.94c.16-.88.3-3.75.3-4.2a29.98 29.98 0 0 1 -.25-3.9 32.6 32.6 0 0 0 .02-5c1.43 0 2.47.99 2.51 3.15.1 1.64-.09 3.13.63 3.24.45.01.68-1.24 1.14-4 .34-2.24.84-5.75 1.53-8.7.34-1.88 2.12-1.38 2.18-.08.05 2.28-.9 7.5-.76 8.53.03.38.4.32.5.08.76-2.43.1-9.21 2.21-9a1.14 1.14 0 0 1 .62.5 3.69 3.69 0 0 1 .24 1.85l-.04.68c-.19 2.46-.45 4.9-.4 6.2-.03.35.26.59.46.35a15.95 15.95 0 0 0 .5-3.36c.28-2.44.63-5.38 1.5-5.31.87.05.88 1.36.78 3.11-.15 2.96-.86 6.85-.75 7.06.13.16.42.27.45-.03.2-1.01.73-3.63 1.15-5.42.22-.9 1.19-1.04 1.4-.45a78.29 78.29 0 0 1 -.7 8.12c-.48 4.88-2.58 9.35-3.1 13.92-.16 1.13-.1 1.87-.27 3.77-.28 5.4-3.14 17.81-5.84 30.91-.96 4.7-1.91 7.46-3.48 9.96" fill="#7a5334"/><path d="m156.24 155.12c5.34 14.02 17 29.7 21.87 32.26 6.59 3.45 8.74 2.34 12.5-2.46s-18.7-36.94-23.12-41.23c-3.8-3.7-12.87 7.17-11.25 11.43z" fill="#7a5334"/><path d="m164.7 139.3c-9.74-2.07-16.6 12.84-10.48 22.25 6.98 10.72 10.32 13.97 10.32 13.97l11.36-22.02s-9.25-13.8-11.2-14.2z" fill="#054752"/><g fill="#041e21"><path d="m132.82 72.68a1.48 1.48 0 0 1 -1.64-1.29l-.68-5.72a1.47 1.47 0 0 1 2.93-.34l.68 5.71a1.48 1.48 0 0 1 -1.3 1.64m-4.44 1.76a1.48 1.48 0 0 1 -1.4-1.54l.3-5.75a1.47 1.47 0 0 1 2.94.15l-.3 5.75a1.48 1.48 0 0 1 -1.54 1.4m9.31-3.41a1.48 1.48 0 0 1 -1.15-1.74l1.18-5.64a1.47 1.47 0 0 1 2.88.6l-1.17 5.64a1.48 1.48 0 0 1 -1.74 1.14"/><path d="m135.13 72.62a1.48 1.48 0 0 1 -1.4-1.55l.3-5.75a1.47 1.47 0 0 1 2.95.15l-.3 5.75a1.48 1.48 0 0 1 -1.55 1.4m8.11-.92a1.48 1.48 0 0 1 -.91-1.88l1.9-5.43a1.47 1.47 0 0 1 2.78.97l-1.9 5.44a1.48 1.48 0 0 1 -1.87.9"/><path d="m141.46 71.9a1.48 1.48 0 0 1 -1.15-1.75l1.16-5.64a1.47 1.47 0 0 1 2.89.6l-1.16 5.63a1.48 1.48 0 0 1 -1.74 1.15m3.04 1.25a1.48 1.48 0 0 1 -.57-2l2.79-5.05a1.47 1.47 0 1 1 2.58 1.43l-2.8 5.04a1.48 1.48 0 0 1 -2 .57m-16.93 13.53a1.48 1.48 0 0 1 -1.28 1.65l-5.7.74a1.47 1.47 0 0 1 -.39-2.92l5.71-.74a1.48 1.48 0 0 1 1.66 1.27m1.81 4.43a1.48 1.48 0 0 1 -1.53 1.41l-5.76-.23a1.47 1.47 0 1 1 .12-2.95l5.76.23a1.48 1.48 0 0 1 1.41 1.54m-.76-9.39a1.48 1.48 0 0 1 -1.73 1.17l-5.65-1.1a1.47 1.47 0 1 1 .56-2.9l5.66 1.1a1.48 1.48 0 0 1 1.16 1.73"/><path d="m127.47 84.35a1.48 1.48 0 0 1 -1.53 1.4l-5.75-.22a1.47 1.47 0 0 1 .12-2.95l5.75.23a1.48 1.48 0 0 1 1.41 1.54m1.61-8.51a1.48 1.48 0 0 1 -1.87.92l-5.46-1.83a1.47 1.47 0 1 1 .94-2.8l5.46 1.84a1.48 1.48 0 0 1 .93 1.87"/><path d="m127.63 79a1.48 1.48 0 0 1 -2 .6l-5.07-2.73a1.47 1.47 0 0 1 1.4-2.6l5.07 2.73a1.48 1.48 0 0 1 .6 2m4.57-7.15a1.48 1.48 0 0 1 -2.07.28l-4.6-3.47a1.47 1.47 0 1 1 1.79-2.35l4.6 3.47a1.48 1.48 0 0 1 .28 2.07m-2.19 1.87a1.48 1.48 0 0 1 -2 .6l-5.07-2.73a1.47 1.47 0 0 1 1.4-2.6l5.07 2.73a1.48 1.48 0 0 1 .6 2m18.09 14.01a1.48 1.48 0 0 0 1.1 1.77l5.6 1.33a1.47 1.47 0 1 0 .68-2.87l-5.6-1.33a1.48 1.48 0 0 0 -1.78 1.1m-2.27 4.21a1.48 1.48 0 0 0 1.38 1.57l5.75.36a1.47 1.47 0 0 0 .19-2.94l-5.75-.37a1.48 1.48 0 0 0 -1.57 1.38m1.73-9.25a1.48 1.48 0 0 0 1.6 1.34l5.74-.52a1.47 1.47 0 1 0 -.26-2.93l-5.74.5a1.48 1.48 0 0 0 -1.34 1.6"/><path d="m148.43 85.44a1.48 1.48 0 0 0 1.38 1.56l5.75.37a1.47 1.47 0 0 0 .18-2.95l-5.74-.36a1.48 1.48 0 0 0 -1.57 1.37m-.71-8.63a1.48 1.48 0 0 0 1.76 1.12l5.62-1.26a1.47 1.47 0 0 0 -.65-2.88l-5.62 1.26a1.48 1.48 0 0 0 -1.11 1.77"/><path d="m148.83 80.1a1.48 1.48 0 0 0 1.93.8l5.32-2.19a1.47 1.47 0 0 0 -1.12-2.72l-5.32 2.19a1.48 1.48 0 0 0 -.8 1.92m-3.81-7.59a1.48 1.48 0 0 0 2.02.5l4.93-2.97a1.47 1.47 0 1 0 -1.52-2.53l-4.93 2.98a1.48 1.48 0 0 0 -.5 2.02m1.98 2.09a1.48 1.48 0 0 0 1.93.8l5.32-2.19a1.47 1.47 0 0 0 -1.12-2.72l-5.33 2.19a1.48 1.48 0 0 0 -.8 1.92"/></g><path d="m146.68 105.13-20.79-.33-1.41 37.96 21.97 4.63z" fill="#7a5334"/><path d="m128.62 125.95-16.42 7.08s-.16 18.3 22.27 19.47 25-15.55 25-15.55l-14.6-10.57z" fill="#7a5334"/><g clip-path="url(#d)" opacity=".65"><path d="m125.9 108.03c.5.2-.5 22.7 20.33 23.7l.32-24.05z" fill="#7a5334"/></g><path d="m135.39 118.45c-6.95-.36-12.26-7.84-11.9-14.8l1.2-23.2a10.78 10.78 0 0 1 11.31-10.16l3.8.2a10.78 10.78 0 0 1 10.17 11.29l-1.2 23.2c-.37 6.95-6.43 13.84-13.37 13.48" fill="#7a5334"/><path d="m130.05 84.68c1.14-1.3 3.19-1.43 4.69.39m7.31.53a3.1 3.1 0 0 1 4.9.32" fill="#041e21"/><path d="m125.07 92.54s-1.75-2.46-2.82-.88c-.27.4-.25 2.3-.18 4.9.05 1.7.8 2.97 1.97 2.13.04-.03 1.03-6.15 1.03-6.15m23.16 1.3s1.89-2.37 2.86-.73c.26.42.13 2.32-.09 4.9-.14 1.7-.96 2.93-2.08 2.02-.03-.03-.69-6.2-.69-6.2" fill="#7a5334"/><path d="m129.06 90.69c.77-1.16 6.03.3 7.01 2.66m4.67.8c1.38-3.33 5.26-4.79 6.22-3.42" fill="#041e21"/><g clip-path="url(#e)" opacity=".65"><path d="m141.9 99c-.49 9.3-7.1 3.38-7.1 3.38l3.37.28c-.04-.26.64-15.28.6-15.21 0 0 3.64 1.64 3.12 11.55" fill="#7a5334"/></g><path d="m141.38 105.82c-.08.2-1.51 3.23-4.54 2.85-4.64-.58-4.68-3.6-4.68-3.6z" fill="#fff"/><path d="m123.56 91.5s2.41 2.25 2.93-.78l1.94-11.17a4.89 4.89 0 0 1 4.57-4.05c3.97-.21 10.97-.1 12.6 2.08 3.04 4.04-.88 15.48 4.14 15.03 2.5-.23.43-12.84.07-17.82-.26-3.58-6.69-7.18-15.78-6.54-7.29.51-9.98 7.04-9.98 7.04z" fill="#041e21"/><g clip-path="url(#f)"><path d="m124.05 93.69a.58.58 0 0 0 -.85.13 1.67 1.67 0 0 0 -.23.94 2.19 2.19 0 0 0 .18 1.2.75.75 0 0 0 1.03.31" fill="#7a5334"/></g><g clip-path="url(#g)"><path d="m149.47 94.33a1.8 1.8 0 0 1 .92 1.2 3.29 3.29 0 0 1 -.03 1.53 1.65 1.65 0 0 1 -.38.82.7.7 0 0 1 -.83.15" fill="#7a5334"/></g><g clip-path="url(#h)"><path d="m134.42 113.98a2.56 2.56 0 0 1 4.16.03" fill="#7a5334"/></g><path d="m125.1 92.65 1.64 6.7.48 11.23-3.54-11.6s-.2 0-.2.34a2.17 2.17 0 0 0 .22.73l3.42 11.87.17 1.32s3.98 5.11 8.85 5.34 8-4.04 8-4.04l.19-.79 4.65-12.77a.48.48 0 0 0 .03-.37c-.04-.19-.24-.01-.24-.01l-4.1 11.52 1.35-10.14 3.14-8.67a.47.47 0 0 0 .1-.3c-.02-.27-.15-.15-.15-.15l-3.33 8.26s-5.66-.67-9.74-1.08-8.45-.88-8.45-.88l-2.43-7.14s-.18-.07-.2.24a.62.62 0 0 0 .13.39z" fill="#fff"/><path d="m129.8 102.85a48.9 48.9 0 0 0 6.4 1.48 31.2 31.2 0 0 0 7.91.05 21.4 21.4 0 0 1 -7.68.45 19.74 19.74 0 0 1 -6.62-1.98zm-.09 4.95a48.9 48.9 0 0 0 6.4 1.47 31.2 31.2 0 0 0 7.91.05 21.4 21.4 0 0 1 -7.68.46 19.74 19.74 0 0 1 -6.63-1.98zm-.21 4.07a42.37 42.37 0 0 0 5.92 1.58 26.1 26.1 0 0 0 7.3.14 17.86 17.86 0 0 1 -7.08.38 17.44 17.44 0 0 1 -6.14-2.1z" fill="#5f003c" opacity=".26"/><path d="m165.46 139.55c0-.03-13.76-8.22-13.76-8.22s2.57 5.14-15.24 4.21-16.36-6.27-16.36-6.27-12.08 3.34-17.6 6.05a.15.15 0 0 0 -.05.05c-1.14.37-6.63 15.12-8.26 34.7-2.21 26.58-1.15 71.5-1.15 71.5l79.03 6.52s-2.3-92.73-6.6-108.54z" fill="#054752"/><path d="m109.65 131.33 7.6-1.76s45.17 97.27 46.57 99.52a1.64 1.64 0 0 1 .2 1.03l-5.67 6.75s-47.63-101.08-48.7-105.54z"/><path d="m112.52 189.54a67.08 67.08 0 0 1 5.65 9.3 93.28 93.28 0 0 0 14.63 22.36c.47.53 2.18 2.04 2.47 2.27a23.8 23.8 0 0 1 2.54 1.76 25.88 25.88 0 0 0 3.1 2.48c-.71.9-1.83 1.06-3.2.01-1.06-.75-1.9-1.6-2.32-1.2-.23.26.43 1.03 1.92 2.67 1.23 1.33 3.16 3.37 4.66 5.26 1 1.14-.2 2-1.04 1.4-1.43-1.1-4.21-4.28-4.92-4.7-.25-.17-.4.1-.3.27 1.14 1.68 5.67 4.63 4.5 5.83a.9.9 0 0 1 -.61.14 2.93 2.93 0 0 1 -1.27-.76l-.4-.37c-1.44-1.33-2.83-2.7-3.66-3.3-.2-.2-.5-.14-.45.1a12.66 12.66 0 0 0 1.84 1.97c1.39 1.38 3.04 3.06 2.57 3.56-.46.52-1.29-.13-2.32-1.05-1.77-1.55-3.84-3.93-4.02-3.96-.16 0-.38.13-.2.3.52.62 1.89 2.25 2.8 3.39.44.58.06 1.25-.41 1.09a62.12 62.12 0 0 1 -4.7-4.45c-2.8-2.7-4.54-6.22-7.13-8.8-.62-.67-1.11-1-2.21-2.03-3.21-2.85-9.52-10.76-16.33-18.91-2.44-2.92-3.69-4.88-4.47-7.1" fill="#7a5334"/><path d="m91.1 157.07c-.77 14.98 3.54 34.04 6.97 38.35 4.63 5.82 7.05 5.68 12.41 2.8s-2.16-41.34-4.46-47.05c-1.99-4.92-14.68 1.35-14.92 5.9z" fill="#7a5334"/><path d="m99.9 136.23c-7.27 4-8.57 11.32-9.6 22.5-1.19 12.74-.6 17.36-.6 17.36l27.73-3.57s-1.1-45.35-17.54-36.29z" fill="#054752"/><path d="m54.18 160.66 9.18 28.99-3.2 27.06c-.04.07-17.83 5.08-18.91 5.2a170.26 170.26 0 0 1 -3.33-21.42c.01-.01 0-.04 0-.07-1.3-15.62-1.6-17.05 3.36-32.3.43-1.47 8.48-8.03 12.9-7.46z" fill="#fce1d8"/><path d="m40.96 227.34c3.52 21.15 7.94 33.57 10 38.54.67 1.77 1.05 2.4 1.38 3.49 1.5 4.32 1.54 9.23 3.2 13.8a76.61 76.61 0 0 0 2.86 7.59c.44.43 1.25-.1 1.06-1.01-.4-1.78-1.04-4.36-1.29-5.35-.1-.29.2-.3.39-.23.18.14 1.22 3.95 2.36 6.66.66 1.6 1.23 2.78 2.04 2.45.8-.31-.13-3.1-.95-5.4a15.96 15.96 0 0 1 -.99-3.24c.08-.3.45-.2.57.12.6 1.15 1.4 3.44 2.3 5.73.09.21.18.42.25.63a3.83 3.83 0 0 0 1.02 1.56 1.16 1.16 0 0 0 .77.18c1.97-.73-1.53-6.52-1.88-9.03-.02-.25.29-.47.48-.14.57.86 1.96 5.95 2.98 7.98.6 1.14 2.42.82 1.93-1.01-.66-2.95-1.7-6.3-2.37-8.47-.77-2.67-1.1-3.88-.7-4.07.7-.21 1.18 1.2 1.97 2.63.95 1.93 2.3 2.35 3.6 1.74a33.06 33.06 0 0 1 -2.13-4.48 29 29 0 0 0 -1.9-3.4c-.2-.4-1.3-3.04-1.54-3.9-4.47-16.35-5.18-40.4-5.1-44.26a42.36 42.36 0 0 0 -1.38-11.07l-19.88 2.62a62.16 62.16 0 0 0 .95 9.33z" fill="#fce1d8"/><path d="m122.83 97.48c-1.35 6.32-4.31 12.27-10.09 15.17 5.41 2.34 6.98 9.6 5.33 15.27-2.52 8.66-10.58 14.94-19.3 17.24s-18.02 1.15-26.75-1.12c-6.77-1.76-13.52-4.27-18.82-8.83a34.86 34.86 0 0 1 -9.05-12.66 21.98 21.98 0 0 1 -2.15-10.35c.51-6.35 5.35-11.9 11.32-14.13s12.82-1.37 18.55 1.42c-4.6-.83-10.27-2.53-11.74-6.96s-.05-10.45 4.56-12.67c3.7-1.78 10.63-.37 14.48 2.06-13.94-3.56-8.6-21.28 4.16-18.02 8.99 2.3 13.23 2.93 21.36 5 17.75 4.54 19.3 23.12 18.14 28.58z" fill="#f6b241"/><path d="m76.85 112.14a4.92 4.92 0 0 1 .3 2.26 4.37 4.37 0 0 1 -1.99 2.31 59.62 59.62 0 0 0 -10.07 9.32c-2.56 3-4.94 6.63-4.54 10.55.38 3.83 3.49 7.02 7.11 8.33s7.65 1 11.38.06a19.73 19.73 0 0 0 8.99-4.57 22.4 22.4 0 0 0 5.09-8.81 61.18 61.18 0 0 0 3.41-24.27c-.33-5.4-3.53-17.72-11.43-13.74-5.54 2.79-9.75 12.77-8.24 18.56z" fill="#f6b241"/><g clip-path="url(#i)"><path d="m35.14 183.96 24.2.4s2.5 13.1 5.03 27.76c2.06 11.98 4.16 25.7 4.73 28.35l28.94-.32.72-.01 29.67-1.51c1.2-7.45 2.47-35.87 4.84-56.2l24.83-1.79s3.8-48.24-27.33-45.42a1.02 1.02 0 0 0 -.5.19c-9.93-3.44-23.4-7.25-23.4-7.25s-5.9-.53-10.58-.38c-2.35.03-8.9.88-8.9.88l-1.12.3c-4.05 1.07-18.1 4.84-27.12 8.07-27.27-.58-24.01 46.93-24.01 46.93z" fill="#fff"/><path d="m150.65 130.81a3.07 3.07 0 0 0 3.07 3.07 3.07 3.07 0 0 0 3.06-3.07v-4.09a3.07 3.07 0 0 0 -3.06-3.06 3.07 3.07 0 0 0 -3.07 3.06zm-35.85 22.92a2.82 2.82 0 0 0 3.06 2.47 2.82 2.82 0 0 0 3.07-2.47v-3.3a2.82 2.82 0 0 0 -3.07-2.47 2.82 2.82 0 0 0 -3.06 2.47zm-11.64-19.19a2.82 2.82 0 0 0 3.07 2.47 2.82 2.82 0 0 0 3.06-2.47v-3.3a2.82 2.82 0 0 0 -3.06-2.47 2.82 2.82 0 0 0 -3.07 2.47zm33.16 15.23a2.82 2.82 0 0 0 3.07 2.47 2.82 2.82 0 0 0 3.06-2.47v-3.3a2.82 2.82 0 0 0 -3.06-2.47 2.82 2.82 0 0 0 -3.07 2.47zm-8.8-9.86c0 2.15 1.37 3.88 3.06 3.88 1.7 0 3.07-1.73 3.07-3.88v-5.17c0-2.15-1.38-3.89-3.07-3.89s-3.06 1.74-3.06 3.89zm23.13 19.47a3.07 3.07 0 0 0 3.07 3.07 3.07 3.07 0 0 0 3.06-3.07v-4.09a3.07 3.07 0 0 0 -3.06-3.06 3.07 3.07 0 0 0 -3.07 3.06zm-36.77 19.22a2.82 2.82 0 0 0 3.06 2.48 2.82 2.82 0 0 0 3.07-2.47v-3.3a2.82 2.82 0 0 0 -3.07-2.46 2.82 2.82 0 0 0 -3.06 2.47zm-16.35-22.49a2.82 2.82 0 0 0 3.06 2.47 2.82 2.82 0 0 0 3.07-2.47v-3.3a2.82 2.82 0 0 0 -3.07-2.46 2.82 2.82 0 0 0 -3.06 2.47zm38.79 22.23a2.82 2.82 0 0 0 3.07 2.47 2.82 2.82 0 0 0 3.06-2.47v-3.3a2.82 2.82 0 0 0 -3.06-2.46 2.82 2.82 0 0 0 -3.07 2.47zm-8.8-9.85c0 2.14 1.37 3.88 3.06 3.88 1.7 0 3.07-1.74 3.07-3.88v-5.18c0-2.14-1.38-3.88-3.07-3.88s-3.06 1.74-3.06 3.88zm-27.31 7.61c0 2.15 1.37 3.89 3.06 3.89 1.7 0 3.07-1.74 3.07-3.88v-5.18c0-2.14-1.37-3.88-3.07-3.88-1.69 0-3.06 1.74-3.06 3.88zm-17.15-36.66a3.06 3.06 0 0 0 3.07 3.07 3.06 3.06 0 0 0 3.06-3.07v-4.09a3.06 3.06 0 0 0 -3.06-3.06 3.06 3.06 0 0 0 -3.07 3.06zm-11.59 2.9a3.06 3.06 0 0 0 3.06 3.07 3.06 3.06 0 0 0 3.07-3.07v-4.09a3.06 3.06 0 0 0 -3.07-3.06 3.06 3.06 0 0 0 -3.06 3.06zm-26.09 11.6a3.06 3.06 0 0 0 3.07 3.06 3.06 3.06 0 0 0 3.06-3.06v-4.1a3.06 3.06 0 0 0 -3.06-3.06 3.06 3.06 0 0 0 -3.07 3.07zm37.68 14.51a3.06 3.06 0 0 0 3.07 3.07 3.06 3.06 0 0 0 3.06-3.07v-4.09a3.06 3.06 0 0 0 -3.06-3.06 3.06 3.06 0 0 0 -3.07 3.06zm-36.77 10.15a2.82 2.82 0 0 0 3.06 2.48 2.82 2.82 0 0 0 3.07-2.47v-3.3a2.82 2.82 0 0 0 -3.07-2.46 2.82 2.82 0 0 0 -3.06 2.47zm22.44-.26a2.82 2.82 0 0 0 3.07 2.47 2.82 2.82 0 0 0 3.07-2.47v-3.3a2.82 2.82 0 0 0 -3.07-2.46 2.82 2.82 0 0 0 -3.07 2.47zm-8.8-9.85c0 2.14 1.37 3.88 3.07 3.88 1.69 0 3.06-1.74 3.06-3.88v-5.18c0-2.14-1.37-3.88-3.06-3.88-1.7 0-3.07 1.74-3.07 3.88zm-27.31 7.61c0 2.15 1.37 3.89 3.07 3.89 1.69 0 3.06-1.74 3.06-3.88v-5.18c0-2.14-1.37-3.88-3.06-3.88-1.7 0-3.07 1.74-3.07 3.88zm118.03 10.48a3.07 3.07 0 0 0 3.07 3.06 3.07 3.07 0 0 0 3.06-3.06v-4.1a3.07 3.07 0 0 0 -3.06-3.05 3.07 3.07 0 0 0 -3.07 3.06zm-35.85 22.92a2.82 2.82 0 0 0 3.06 2.46 2.82 2.82 0 0 0 3.07-2.47v-3.29a2.82 2.82 0 0 0 -3.07-2.47 2.82 2.82 0 0 0 -3.06 2.47zm-11.64-15.57a2.82 2.82 0 0 0 3.07 2.46 2.82 2.82 0 0 0 3.06-2.46v-3.3a2.82 2.82 0 0 0 -3.06-2.47 2.82 2.82 0 0 0 -3.07 2.47zm33.16 11.6a2.82 2.82 0 0 0 3.07 2.47 2.82 2.82 0 0 0 3.06-2.47v-3.29a2.82 2.82 0 0 0 -3.06-2.47 2.82 2.82 0 0 0 -3.07 2.47zm-8.8-9.85c0 2.14 1.37 3.88 3.06 3.88 1.7 0 3.07-1.74 3.07-3.88v-5.18c0-2.14-1.38-3.88-3.07-3.88s-3.06 1.74-3.06 3.88zm23.13 19.47a3.07 3.07 0 0 0 3.07 3.06 3.07 3.07 0 0 0 3.06-3.06v-4.09a3.07 3.07 0 0 0 -3.06-3.06 3.07 3.07 0 0 0 -3.07 3.06zm-36.77 19.23a2.82 2.82 0 0 0 3.06 2.46 2.82 2.82 0 0 0 3.07-2.46v-3.3a2.82 2.82 0 0 0 -3.07-2.47 2.82 2.82 0 0 0 -3.06 2.47zm-16.35-22.5a2.82 2.82 0 0 0 3.06 2.46 2.82 2.82 0 0 0 3.07-2.46v-3.3a2.82 2.82 0 0 0 -3.07-2.47 2.82 2.82 0 0 0 -3.06 2.47zm38.79 22.22a2.82 2.82 0 0 0 3.07 2.47 2.82 2.82 0 0 0 3.06-2.46v-3.3a2.82 2.82 0 0 0 -3.06-2.47 2.82 2.82 0 0 0 -3.07 2.47zm-8.8-9.85c0 2.15 1.37 3.88 3.06 3.88 1.7 0 3.07-1.73 3.07-3.88v-5.17c0-2.15-1.38-3.89-3.07-3.89s-3.06 1.74-3.06 3.89zm-27.31 7.62c0 2.15 1.37 3.88 3.06 3.88 1.7 0 3.07-1.73 3.07-3.88v-5.17c0-2.15-1.37-3.89-3.07-3.89-1.69 0-3.06 1.74-3.06 3.89zm-17.15-34.41a3.06 3.06 0 0 0 3.07 3.06 3.06 3.06 0 0 0 3.06-3.06v-4.1a3.06 3.06 0 0 0 -3.06-3.06 3.06 3.06 0 0 0 -3.07 3.07zm-35.85 12.04a2.82 2.82 0 0 0 3.07 2.46 2.82 2.82 0 0 0 3.06-2.47v-3.29a2.82 2.82 0 0 0 -3.06-2.47 2.82 2.82 0 0 0 -3.07 2.47zm-11.64-19.2a2.82 2.82 0 0 0 3.06 2.47 2.82 2.82 0 0 0 3.07-2.47v-3.29a2.82 2.82 0 0 0 -3.07-2.47 2.82 2.82 0 0 0 -3.06 2.47zm33.16 15.23a2.82 2.82 0 0 0 3.07 2.47 2.82 2.82 0 0 0 3.07-2.47v-3.29a2.82 2.82 0 0 0 -3.07-2.47 2.82 2.82 0 0 0 -3.07 2.47zm-8.8-9.85c0 2.14 1.37 3.88 3.07 3.88 1.69 0 3.06-1.74 3.06-3.88v-5.18c0-2.14-1.37-3.88-3.06-3.88-1.7 0-3.07 1.74-3.07 3.88zm23.13 30.79a3.06 3.06 0 0 0 3.07 3.06 3.06 3.06 0 0 0 3.06-3.06v-4.1a3.06 3.06 0 0 0 -3.06-3.06 3.06 3.06 0 0 0 -3.07 3.07zm-36.77 7.91a2.82 2.82 0 0 0 3.06 2.46 2.82 2.82 0 0 0 3.07-2.46v-3.3a2.82 2.82 0 0 0 -3.07-2.47 2.82 2.82 0 0 0 -3.06 2.47zm-16.35-22.5a2.82 2.82 0 0 0 3.07 2.46 2.82 2.82 0 0 0 3.06-2.46v-3.3a2.82 2.82 0 0 0 -3.06-2.47 2.82 2.82 0 0 0 -3.07 2.47zm38.79 22.22a2.82 2.82 0 0 0 3.07 2.47 2.82 2.82 0 0 0 3.07-2.46v-3.3a2.82 2.82 0 0 0 -3.07-2.47 2.82 2.82 0 0 0 -3.07 2.47zm-8.8-9.85c0 2.15 1.37 3.88 3.07 3.88 1.69 0 3.06-1.73 3.06-3.88v-5.17c0-2.15-1.37-3.89-3.06-3.89-1.7 0-3.07 1.74-3.07 3.89zm-27.31 7.62c0 2.15 1.37 3.88 3.07 3.88 1.69 0 3.06-1.73 3.06-3.88v-5.17c0-2.15-1.37-3.89-3.06-3.89-1.7 0-3.07 1.74-3.07 3.89z" fill="#054752"/></g><path d="m103.14 136.28s.66 19.75-.25 23.16-2.02 4.13-4.34 4.13-2.98-2.33-3.58-4.3-3.2-22.37-3.2-22.37a8.08 8.08 0 0 0 4.79 1.4 13.37 13.37 0 0 0 6.58-2.02z" fill="#fce1d8"/><path d="m59.23 136.6 10.56-3.5s52.7 100.76 54.28 103.05c.34.49.51.32.51.32l-8.25 8.67s-55.73-103.9-57.1-108.54z"/><path d="m89.17 108.39 15.62 3.08 2.43 26.03-22.8 1.92z" fill="#fce1d8"/><path d="m105.36 117.07c-.55.11-.45 6.14-18.4 6.12l2.04-13.19z" fill="#fce1d8"/><path d="m85.07 97.66c.18 13.33 3.37 26.24 11.87 27.57 7.8 1.22 15.1-10.89 18.17-23.87 3.97-16.78-2.76-23.08-12.2-24.36s-18.05 4.7-17.84 20.66z" fill="#fce1d8"/><path d="m101.5 106.41c-.02-.28-.13-9.69-.18-9.62 0 0 4.43.8 3.94 6.29-.7 7.95-8.29 3.22-8.29 3.22" fill="#fce1d8"/><path d="m114.74 91.72c-1.01-1.7-6.83-3.1-8.64-1.03" opacity=".3"/><path d="m100.09 90.82c-2.06-2.56-7.5-3-8.97-1.12" opacity=".3"/><path d="m96.01 97.44a.8.8 0 0 0 .18 0 .8.8 0 0 0 .66-.92c-.15-.95-.91-2.74-2.72-2.86h-.08a2.54 2.54 0 0 0 -2.75 2.09.8.8 0 0 0 1.57.26.95.95 0 0 1 1.12-.76h.03c1 .07 1.25 1.5 1.26 1.52a.8.8 0 0 0 .73.67zm15.89 2.98a.78.78 0 0 0 .15 0 .8.8 0 0 0 .7-.88c-.1-.97-.76-2.81-2.6-2.94h-.08a2.76 2.76 0 0 0 -2.87 2.07.8.8 0 0 0 1.56.37 1.15 1.15 0 0 1 1.25-.84h.03c.95.06 1.12 1.45 1.13 1.5a.8.8 0 0 0 .74.72z"/><path d="m86.06 95.7 1.06 7.05.26 9.18-2.29-9.58s-.25-.01-.27.38a2.37 2.37 0 0 0 .23.86l2.12 9.9.12 1.53a26.83 26.83 0 0 0 11 3.75 24.08 24.08 0 0 0 9.9-.94l.29-.9 5.07-8.55a.53.53 0 0 0 .07-.43c-.03-.23-.3-.03-.3-.03l-4.3 7.12 1.99-8.2 3.38-5.65a.54.54 0 0 0 .15-.34c-.02-.32-.18-.19-.18-.19l-3.59 5.18s-7.02-1.09-12.09-1.79-10.48-1.47-10.48-1.47l-2-7.6s-.23-.1-.28.26a.68.68 0 0 0 .14.46z" fill="#fff"/><path d="m90.7 106.99a64.21 64.21 0 0 0 7.89 2.05 41.89 41.89 0 0 0 9.87.5 28.8 28.8 0 0 1 -9.62.1 25.61 25.61 0 0 1 -8.14-2.64zm-.46 5.73a64.22 64.22 0 0 0 7.88 2.06 41.9 41.9 0 0 0 9.88.48 28.8 28.8 0 0 1 -9.63.12 25.6 25.6 0 0 1 -8.13-2.66z" fill="#5f003c" opacity=".26"/><path d="m113.33 107.92c.82.31 1.88-.45 2.37-1.7l1.2-3.13c.48-1.25.2-2.54-.61-2.85-.82-.32-1.89.45-2.37 1.7l-1.2 3.12c-.49 1.26-.21 2.54.6 2.86m-28.57-5.42c.87 0 1.59-1.1 1.59-2.45v-3.34c0-1.35-.72-2.45-1.59-2.45s-1.58 1.1-1.58 2.45v3.34c0 1.34.71 2.44 1.58 2.44" fill="#fce1d8"/><path d="m118.18 93.56c-.92.1-34.4-2.86-34.4-2.86s4.67-15.96 17.64-16.02c27.07-.12 16.76 18.88 16.76 18.88z" fill="#f6b241"/><path d="m117.5 131.3-10.63-3.14-20.9.71-11.88 3.52s8.71 17.54 22.5 17.54c13.83 0 20.91-18.06 20.9-18.63z" fill="#fce1d8"/><path d="m55.08 163.62 7.18 36.02-2 16.12 1.06 20.78s-5.67-8.74-11.19-26.49c-6.24-20.01 4.95-46.43 4.95-46.43z" fill="#fce1d8"/><path d="m131.18 182.5-1.3 36.8c.02.08 18.09 3.99 19.17 4.2a136.71 136.71 0 0 0 4.3-18.72c-.02-.02 0-.05-.02-.08 2.51-15.53 2.42-19 2.14-23.8-.02-.24-19.83 1.37-24.29 1.6z" fill="#fce1d8"/><path d="m148.26 229.45c-4.56 20.95-9.59 33.13-11.9 38-.75 1.73-1.15 2.34-1.54 3.41-1.7 4.24-2 9.15-3.88 13.63a76.61 76.61 0 0 1 -3.23 7.43c-.46.42-1.24-.16-1-1.06.47-1.75 1.25-4.3 1.55-5.27.12-.29-.19-.32-.38-.25-.2.13-1.41 3.88-2.69 6.54-.73 1.57-1.37 2.71-2.16 2.34-.78-.35.3-3.09 1.22-5.35a15.96 15.96 0 0 0 1.14-3.18c-.06-.3-.43-.23-.56.1-.66 1.1-1.58 3.36-2.59 5.6-.1.2-.2.4-.28.62a3.83 3.83 0 0 1 -1.1 1.5 1.16 1.16 0 0 1 -.77.14c-1.94-.82 1.84-6.43 2.33-8.92.03-.25-.27-.48-.48-.16-.61.82-2.25 5.84-3.37 7.81-.67 1.11-2.46.7-1.88-1.1.8-2.9 2.02-6.21 2.79-8.34.9-2.63 1.29-3.82.9-4.03-.68-.25-1.24 1.15-2.1 2.53-1.04 1.88-2.42 2.24-3.68 1.56a33.07 33.07 0 0 0 2.35-4.37 28.99 28.99 0 0 1 2.06-3.3c.21-.39 1.45-2.97 1.73-3.81 5.27-16.12 7.17-40.11 7.27-43.96a42.35 42.35 0 0 1 1.93-11l19.73 3.62a62.16 62.16 0 0 1 -1.41 9.27z" fill="#fce1d8"/><path d="m137.8 163.87-6.62 18.92-3.19 49.33s9.61-5.75 15.14-23.5c6.24-20-5.34-44.75-5.34-44.75z" fill="#fce1d8"/><path d="m323.75 158.8 7.4 72.22c.03.07 20.46 5.42 21.65 5.58.13-.1 1.92-12.08 3-22.98-.02-.02 0-.05 0-.09 1.69-17.1 2.1-40.28-3.07-57.08-.45-1.62-24.13 1.82-28.98 2.36" fill="#af865e"/><path d="m323.75 158.8 7.4 72.22c.03.07 20.46 5.42 21.65 5.58.13-.1 1.92-12.08 3-22.98-.02-.02 0-.05 0-.09 1.69-17.1 2.1-40.28-3.07-57.08-.45-1.62-24.13 1.82-28.98 2.36m-74.41-2.76-16.43 70.7c-.05.07-20.98 2.81-22.19 2.82-.12-.11-.38-12.23-.08-23.18.02-.01 0-.05.02-.08.47-17.18 2.97-40.23 10.22-56.25.65-1.55 23.71 4.85 28.46 6" fill="#cd9f6f"/><path d="m242.32 185.16-9.36 43c-.05.07-19.3 3.87-19.3 3.87z" fill="#af865e" opacity=".4"/><path d="m210.72 180.63s3.66-15.55 7.2-25.31c6.39-17.58 19.34-27.52 28.1-27.12l.24.26c8.97-4.36 32.15-7.75 32.15-7.75s5.3.97 9.65 1.6a69.28 69.28 0 0 0 11.16-.72s23.52 3.81 37.23 12.33c3.6 1.5 14.04 9.43 18.7 17.04 6.87 11.22 4.86 38.77 4.86 38.77l-30.94-.44c-4.3 24.73-7.26 61.72-8.69 67.75l-35.02-1.5-43.1-1.95c-.87-6.16.45-43.7-1.26-68.76z" fill="#2ed1ff"/><path d="m332.43 166.82-8.56 20.33-4.58 52.62s9.81-4.64 17.06-23.75c8.19-21.55-3.92-49.2-3.92-49.2zm-93.81-4.27 6.67 21.03-.21 52.81s-9.35-5.51-14.83-25.2c-6.2-22.2 8.37-48.64 8.37-48.64z" fill="#af865e" opacity=".27"/><path d="m328.35 188.63-8.22 66.45-11.07 21.07s-31 14.48-31.94-7.93c-1.45-34.42 51.23-79.59 51.23-79.59z" fill="#8f405f" opacity=".2"/><path d="m319.6 126.78s-64.69 78.84-78.81 121.21l14.54.23s54.97-85.62 80.56-115.22c0 0-9.55-3.99-16.3-6.22z"/><rect fill="#041e21" height="43.33" rx="9.22" transform="matrix(-.99669435 .0812427 -.0812427 -.99669435 592.436122 134.094602)" width="21.06" x="282.96" y="57.44"/><rect fill="#041e21" height="43.33" rx="8.29" transform="matrix(-.99669435 .0812427 -.0812427 -.99669435 542.306751 140.254296)" width="21.06" x="257.77" y="59.49"/><rect fill="#041e21" height="43.33" rx="8.29" transform="matrix(-.99669435 .0812427 -.0812427 -.99669435 551.025212 115.639554)" width="21.06" x="262.64" y="47.37"/><rect fill="#041e21" height="43.33" rx="9.22" transform="matrix(-.99669435 .0812427 -.0812427 -.99669435 574.605672 105.820098)" width="21.06" x="274.63" y="42.94"/><path d="m267.94 122.43a16.85 16.85 0 0 0 .85 3.63c1.25 3.55 4.25 8.54 11.3 9.13a5.57 5.57 0 0 0 1.14-.02c.05.02.05.02.1-.03.05.03.07 0 .07 0h.03c12.87.6 16.62-6.15 17.47-11.61 2.05-13.39-2.36-34.95-2.36-34.95l-28.62 10.37.01 16.94z" fill="#cd9f6f"/><path d="m290.22 111.59c-.37.13-7.8 13.92-22.03 12.4 0 0-.37-10.29-.21-13.87.13-2.93 1.21-12.14 1.21-12.14z" fill="#bc9068"/><path d="m299.18 95.72s1.31-19.3-5.67-28.98c-10.07-13.97-28.3-6.55-31.54 1.64-4.44 11.19 1.09 33.78 1.09 33.78z" fill="#cd9f6f"/><path d="m260.6 83.52 1.12 8.02c1.28 13.99 3.58 25.4 15.12 26.17a24.4 24.4 0 0 0 4.53-.17l-2.98-41.87-2.69.2-3.42.3-4.28.3c-3.02.3-5.82 1.93-6.73 4.48a5.74 5.74 0 0 0 -.62 2.38z" fill="#cd9f6f"/><path d="m298.2 81.33v8.1c.23 7.83-1.35 25.74-12.65 28.13a17.32 17.32 0 0 1 -3.96.43l-3.42-41.83 4-.27 3.42-.19 4.26-.29c3.06-.16 6.04 1.08 7.3 3.46a6.09 6.09 0 0 1 .97 2.28z" fill="#cd9f6f"/><path d="m270.69 102.22c2.5-.24 16.97-1.08 16.97-1.08-.1 3.1-4.3 5.98-8.34 6.35-3.8.36-8.35-2.5-8.63-5.27z" fill="#fff"/><path d="m275.14 86.3s.48 13.16.61 13.37c.7 1.02 5.5.88 5.5.88s-5.9 5.12-11.16 1.93c-5.3-3.18-8.5-17.56 5.05-16.18z" fill="#bc9068"/><path d="m294.12 108s-22.55 1.29-28.44 1.66c-.14 0 4.54 11.68 12.99 10.9 10.11-.92 15.45-12.56 15.45-12.56z" fill="#736449"/><path d="m271.94 66.17c.04 2.7-.36 5.61-2.3 7.63s-5.82 2.5-7.55.34a6.37 6.37 0 0 1 -1.05-3.83c-.2-4.68.58-9.85 4.29-13.03 6.2-5.31 19.44-7.82 23 1.3 4.15 10.69-16.34 10.75-16.39 7.6z" fill="#041e21"/><rect fill="#cd9f6f" height="7.48" rx="2.22" transform="matrix(-.99839167 .05669279 -.05669279 -.99839167 603.609603 166.716074)" width="4.44" x="297.22" y="88.18"/><path d="m298.13 90.78a2.3 2.3 0 0 1 2 1.77c.13.94-.83 1.95-1.74 1.66" fill="#bc9068"/><path d="m298.94 88.34-3.67 9.28-2.44 11.2 5.42-12.82s.31 0 .33.47a2.8 2.8 0 0 1 -.31 1.04l-5.21 13.22-1.38 2.3s-3.34 3.3-11.04 3.73a26.53 26.53 0 0 1 -12.9-2.33l-.33-1.11-3.58-7.52a.63.63 0 0 1 -.08-.52c.05-.27.38-.03.38-.03l2.65 5.75-1.92-9.25-2.86-4.82a.65.65 0 0 1 -.2-.42c.04-.39.25-.22.25-.22l3.14 4.23s8.93-1.07 15.38-1.73 13.34-1.42 13.34-1.42l4.88-9.93s.29-.1.35.34a.8.8 0 0 1 -.2.56z" fill="#fff"/><path d="m290.6 102.66a83.73 83.73 0 0 1 -10.05 2.22 55.2 55.2 0 0 1 -12.54.24 37.96 37.96 0 0 0 12.2.48 33.19 33.19 0 0 0 10.4-2.94zm.43 7.01a83.73 83.73 0 0 1 -10.06 2.22 55.2 55.2 0 0 1 -12.53.24 37.96 37.96 0 0 0 12.2.49 33.19 33.19 0 0 0 10.39-2.95z" fill="#5f003c" opacity=".26"/><path d="m283.67 88.88a1.1 1.1 0 0 0 1.15-.94s.32-1.76 1.5-1.8c1.1-.05 1.26.68 1.28.83a1.1 1.1 0 0 0 2.2-.34 3.3 3.3 0 0 0 -3.56-2.71c-2.4.09-3.41 2.44-3.61 3.67a1.1 1.1 0 0 0 1.04 1.29z"/><path d="m281.47 78.3a5.14 5.14 0 0 1 3.15-1.33 6.92 6.92 0 0 1 4.11 1.08l1.26-1.83a9.1 9.1 0 0 0 -5.6-1.45 7.28 7.28 0 0 0 -4.59 2.06z" fill="#041e21"/><path d="m264.84 91.82a1.1 1.1 0 0 0 1.15-1c.01-.06.21-1.74 1.35-1.79a1.32 1.32 0 0 1 1.45.98 1.11 1.11 0 0 0 1.35.8 1.1 1.1 0 0 0 .8-1.32 3.57 3.57 0 0 0 -3.69-2.67c-2.45.1-3.34 2.51-3.46 3.78a1.11 1.11 0 0 0 .99 1.22z"/><path d="m264.77 82.29a5.13 5.13 0 0 1 2.7-2.09 6.89 6.89 0 0 1 4.25-.03l.75-2.08a9.09 9.09 0 0 0 -5.8.04 7.28 7.28 0 0 0 -3.9 3.18z" fill="#041e21"/><path d="m286.02 98.17c-3.91-.78-7.73-4.27-7.45-10.31.28-5.9 4.26-8.94 8.08-9.34a10.36 10.36 0 0 1 7.06 2.2 9.54 9.54 0 0 1 3.1 6.95 9.83 9.83 0 0 1 -3.26 8.25 9.72 9.72 0 0 1 -5.64 2.37 7.28 7.28 0 0 1 -1.89-.12zm.79-18.05c-4.35.45-6.46 4.25-6.63 7.82-.18 3.66 1.66 7.76 6.16 8.66a7.57 7.57 0 0 0 6.16-1.9 8.11 8.11 0 0 0 2.7-6.92 8.01 8.01 0 0 0 -2.52-5.83 8.82 8.82 0 0 0 -5.85-1.83zm-23.3 19.48c-3.91-.78-7.73-4.27-7.45-10.3.28-5.91 4.26-8.95 8.08-9.35a10.36 10.36 0 0 1 7.06 2.2 9.54 9.54 0 0 1 3.1 6.95 9.83 9.83 0 0 1 -3.26 8.25 9.72 9.72 0 0 1 -5.64 2.37 7.28 7.28 0 0 1 -1.89-.12zm.78-18.05c-4.34.45-6.45 4.25-6.62 7.82-.18 3.66 1.66 7.76 6.16 8.66a7.57 7.57 0 0 0 6.16-1.9 8.11 8.11 0 0 0 2.7-6.92 8.01 8.01 0 0 0 -2.52-5.83 8.83 8.83 0 0 0 -5.85-1.83z" fill="#022326"/><path d="m273.22 87.64h5.67v1.6h-5.67z" fill="#022326" transform="matrix(.99798265 -.06348726 .06348726 .99798265 -5.058538 17.704727)"/><path d="m242.73 247.39 76.8 3.14s16.11 55.88-4.13 68.08c-.04.02-80.88-3.64-80.9-3.68-7.27-35.93 8.23-67.54 8.23-67.54z" fill="#162d38"/><path d="m201.88 260.78c8.95-9.54 49.42-17.2 49.42-17.2l5.22 55.98-62.46-2.84c-1.91-.09 1.3-29 7.82-35.94z" fill="#162d38"/><path d="m278.32 281.81a57.1 57.1 0 1 1 59.64-54.45 57.17 57.17 0 0 1 -59.64 54.45zm4.7-103.15a46.15 46.15 0 1 0 44 48.2 46.2 46.2 0 0 0 -44-48.2z" fill="#9aed66"/><path d="m225.84 198.18c1.43-5.4 6.86-12.88 13.95-13.13 4.76-.17 8.88 3.5 8.46 7.65 0 0 2.99 1.17 2.52 4.22-1.37 9-5.17 7.15-5.17 7.15s.1.7-1.02 1.21a2.88 2.88 0 0 1 -1.92 0s1.38 1.93.64 3.54a4.77 4.77 0 0 1 -2.26 2.3s.2 1.28-1.83 2.24c-2.24 1.05-5.34-1.59-6.45-2.35-.37-.26-.87 3.62-.97 6.67-6.15-1.39-9.29-6.85-5.95-19.5z" fill="#cd9f6f"/><path d="m241.2 201.59a23.8 23.8 0 0 0 -4.98-3.05 1.35 1.35 0 0 0 -1.14 2.45 21.42 21.42 0 0 1 4.27 2.58 26.34 26.34 0 0 1 2.23 2.54 1.35 1.35 0 0 0 2.15-1.64 28.46 28.46 0 0 0 -2.54-2.88zm-1.62 5.85a11.04 11.04 0 0 0 -6.16-2.45 1.35 1.35 0 0 0 -.13 2.7 8.37 8.37 0 0 1 4.5 1.78 20.1 20.1 0 0 1 2.19 2.5 1.35 1.35 0 0 0 2.18-1.6 22.31 22.31 0 0 0 -2.58-2.93zm10.02-14.56a1.35 1.35 0 1 0 -2.69-.35 19.11 19.11 0 0 1 -.87 3.69 24.99 24.99 0 0 0 -5.98-5.7 1.35 1.35 0 0 0 -1.53 2.24c2.09 1.42 5.52 4.37 5.86 6.23a11.19 11.19 0 0 1 -.08 4.69 1.35 1.35 0 0 0 2.59.79 13.56 13.56 0 0 0 .26-5.17 5.83 5.83 0 0 0 1.38-2.04 21.77 21.77 0 0 0 1.05-4.38z" fill="#bc9068"/><path d="m341.12 203.34c-.93-5.52-5.66-13.46-12.7-14.35-4.72-.6-9.16 2.68-9.12 6.85 0 0-3.08.9-2.9 3.97.56 9.09 4.5 7.6 4.5 7.6s-.16.68.91 1.29a2.88 2.88 0 0 0 1.92.18s-1.55 1.79-.96 3.46a4.76 4.76 0 0 0 2.04 2.5s-.31 1.25 1.62 2.39c2.13 1.25 5.46-1.1 6.64-1.75.4-.23.54 3.68.36 6.73 6.25-.82 9.87-5.98 7.7-18.87z" fill="#cd9f6f"/><path d="m328.98 196.78a1.35 1.35 0 0 0 -1.32-2.36 25 25 0 0 0 -6.48 5.12 19.63 19.63 0 0 1 -.53-3.75 1.35 1.35 0 1 0 -2.7.1 21.75 21.75 0 0 0 .65 4.46 5.81 5.81 0 0 0 1.19 2.16 13.57 13.57 0 0 0 -.2 5.17 1.35 1.35 0 0 0 1.25 1.07 1.35 1.35 0 0 0 1.4-1.62 11.2 11.2 0 0 1 .34-4.68c.5-1.82 4.2-4.44 6.4-5.67zm-4.26 13.02a26.44 26.44 0 0 1 2.46-2.33 21.48 21.48 0 0 1 4.49-2.18 1.35 1.35 0 1 0 -.92-2.55 23.84 23.84 0 0 0 -5.23 2.59 28.59 28.59 0 0 0 -2.78 2.63 1.35 1.35 0 0 0 1.98 1.84zm8.24-.37a11.05 11.05 0 0 0 -6.36 1.87 22.62 22.62 0 0 0 -2.83 2.68 1.35 1.35 0 0 0 2.02 1.8 20.27 20.27 0 0 1 2.4-2.29 8.36 8.36 0 0 1 4.65-1.36 1.35 1.35 0 0 0 .12-2.7z" fill="#bc9068"/></g></svg>